<svg width="201" height="45" viewBox="0 0 201 45" fill="none" xmlns="http://www.w3.org/2000/svg">
<g clip-path="url(#clip0_1217_4611)">
<path d="M24.5714 10.9265C24.5714 18.1613 20.2318 20.9695 16.1351 22.4967C14.9632 22.9316 9.68148 24.8802 8.53256 25.3017C8.39798 25.3522 8.30934 25.4803 8.31263 25.6287V43.7797C8.31263 44.1236 8.04017 44.4034 7.70534 44.4034H1.10728C0.772457 44.4034 0.5 44.1236 0.5 43.7797V1.21378C0.5 0.869905 0.772457 0.590088 1.10728 0.590088H12.8656C20.6487 0.590088 24.5714 3.69168 24.5714 10.9265ZM12.7277 18.8793C15.6132 17.8747 16.9689 14.7394 16.9656 11.6513C16.9656 9.29476 16.4601 4.9222 12.5702 4.9222H8.91991C8.58508 4.9222 8.31263 5.20201 8.31263 5.54589V19.9683C8.31263 20.0694 8.35858 20.1638 8.43737 20.2211C8.51615 20.2784 8.61791 20.2953 8.70982 20.2649C9.61254 19.9548 11.802 19.1996 12.7277 18.8793Z" fill="#1F4D25"/>
<path d="M48.2686 19.0513C47.9863 19.2333 47.9042 19.6177 48.0815 19.9076C51.9615 26.4243 53.6488 38.0586 53.7703 43.7628C53.7735 43.9314 53.7112 44.0932 53.5963 44.2146C53.4814 44.336 53.3238 44.4034 53.163 44.4034H47.3593C47.0442 44.4034 46.7816 44.1539 46.7553 43.8336C45.7574 33.0287 43.6565 26.7277 42.2319 23.5351C41.7592 22.4765 40.584 21.9506 39.5073 22.3113L38.6637 22.5945C37.8299 22.8743 37.2653 23.6733 37.2653 24.5735V43.7797C37.2653 44.1236 36.9928 44.4034 36.658 44.4034H30.0599C29.7251 44.4034 29.4526 44.1236 29.4526 43.7797V1.21378C29.4526 0.869905 29.7251 0.590088 30.0599 0.590088H42.0349C49.3125 0.590088 52.966 3.75236 52.966 10.1814C53.0678 13.7887 51.2755 17.1768 48.2719 19.0513H48.2686ZM45.544 10.3196C45.544 8.22269 45.0418 4.9222 41.4014 4.9222H37.8693C37.5344 4.9222 37.262 5.20201 37.262 5.54589V17.3252C37.262 17.5207 37.3506 17.7028 37.5016 17.8208C37.6526 17.9388 37.8463 17.9792 38.0301 17.9253C38.9361 17.6657 40.4396 17.2375 41.4014 16.9543C44.3754 16.0845 45.5407 13.1245 45.5407 10.3163L45.544 10.3196Z" fill="#1F4D25"/>
<path d="M67.6132 39.4442C67.6132 39.7881 67.8856 40.0679 68.2204 40.0679H78.2127C78.5476 40.0679 78.82 40.3477 78.82 40.6916V43.7729C78.82 44.1168 78.5476 44.3966 78.2127 44.3966H60.4045C60.0697 44.3966 59.7972 44.1168 59.7972 43.7729V1.21036C59.7972 0.866487 60.0697 0.58667 60.4045 0.58667H76.0167C76.3515 0.58667 76.6239 0.866487 76.6239 1.21036V4.29172C76.6239 4.63559 76.3515 4.91541 76.0167 4.91541H68.2172C67.8823 4.91541 67.6099 5.19523 67.6099 5.5391V15.4237C67.6099 15.7676 67.8823 16.0474 68.2172 16.0474H76.7815C77.1163 16.0474 77.3888 16.3272 77.3888 16.6711V19.7525C77.3888 20.0963 77.1163 20.3762 76.7815 20.3762H68.2172C67.8823 20.3762 67.6099 20.656 67.6099 20.9998V39.4374L67.6132 39.4442Z" fill="#1F4D25"/>
<path d="M104.894 32.3408C104.894 40.7286 100.955 45 94.2286 45C90.3846 45.0607 86.6391 43.729 83.6585 41.2343C83.409 41.0185 83.3762 40.6376 83.583 40.3746L85.6773 37.7045C85.8677 37.4618 86.2026 37.4011 86.4619 37.5663C87.6403 38.3147 90.9853 40.233 94.2318 40.233C96.4903 40.233 98.4599 38.9013 98.4599 35.3986C98.4599 27.7997 84.1214 24.4452 84.1214 11.0545C84.1214 5.29967 87.8275 0 94.2318 0C97.7475 0.023599 101.155 1.26086 103.899 3.51626C104.155 3.73202 104.195 4.11972 103.988 4.38605C103.988 4.38605 102.783 6.0245 101.89 7.12354C101.68 7.37976 101.312 7.42021 101.056 7.21456C99.8024 6.21666 96.9466 4.52765 94.3763 4.52765C91.806 4.52765 89.8758 6.05821 89.8758 9.26768C89.8758 16.2699 104.894 20.4941 104.897 32.3374L104.894 32.3408Z" fill="#1F4D25"/>
<path d="M111.787 44.4034V0.590088H119.6V44.4034H111.787Z" fill="#1F4D25"/>
<path d="M152.492 22.4934C152.492 37.3136 144.141 44.4 137.031 44.4H127.57C127.235 44.4 126.963 44.1202 126.963 43.7763V1.21378C126.963 0.869905 127.235 0.590088 127.57 0.590088H137.031C144.141 0.590088 152.492 7.67654 152.492 22.4967V22.4934ZM144.994 22.4934C144.994 11.6075 141.39 4.9458 137.027 4.9458V4.91883H135.383C135.048 4.91883 134.775 5.19864 134.775 5.54252V39.4442C134.775 39.7881 135.048 40.0679 135.383 40.0679H137.027V40.0409C141.39 40.0409 144.994 33.3793 144.994 22.4934Z" fill="#1F4D25"/>
<path d="M158.289 44.4034V0.590088H166.101V44.4034H158.289Z" fill="#1F4D25"/>
<path d="M200.5 22.483C200.5 37.4617 193.39 44.7167 186.28 44.7167C179.17 44.7167 172.059 37.4617 172.059 22.483C172.059 7.5044 179.17 0.310059 186.28 0.310059C193.39 0.310059 200.5 7.5044 200.5 22.4797V22.483ZM192.701 22.483C192.701 11.4825 190.639 4.5916 186.28 4.5916C181.92 4.5916 179.859 11.4791 179.859 22.483C179.859 33.4869 181.917 40.4048 186.28 40.4048C190.642 40.4048 192.701 33.4869 192.701 22.483Z" fill="#1F4D25"/>
</g>
<defs>
<clipPath id="clip0_1217_4611">
<rect width="200" height="45" fill="white" transform="translate(0.5)"/>
</clipPath>
</defs>
</svg>
