<svg width="168" height="41" viewBox="0 0 168 41" fill="none" xmlns="http://www.w3.org/2000/svg">
<g clip-path="url(#clip0_1413_3408)">
<path d="M20.22 10.3783C20.22 16.7931 16.5747 19.2832 13.1335 20.6373C12.1491 21.0229 7.71244 22.7507 6.74735 23.1243C6.6343 23.1691 6.55985 23.2827 6.56261 23.4143V39.5082C6.56261 39.8131 6.33374 40.0612 6.05249 40.0612H0.510119C0.228864 40.0612 0 39.8131 0 39.5082V1.76638C0 1.46148 0.228864 1.21338 0.510119 1.21338H10.3871C16.9249 1.21338 20.22 3.96345 20.22 10.3783ZM10.2713 17.4299C12.6951 16.5391 13.8339 13.7591 13.8311 11.021C13.8311 8.93152 13.4065 5.05452 10.139 5.05452H7.07273C6.79147 5.05452 6.56261 5.30262 6.56261 5.60752V18.3954C6.56261 18.485 6.60121 18.5687 6.66739 18.6196C6.73357 18.6704 6.81905 18.6853 6.89625 18.6584C7.65454 18.3834 9.49372 17.7138 10.2713 17.4299Z" fill="#F9F1DB"/>
<path d="M40.1257 17.5823C39.8886 17.7437 39.8196 18.0845 39.9685 18.3416C43.2278 24.1197 44.6451 34.4355 44.7471 39.4932C44.7499 39.6427 44.6975 39.7862 44.601 39.8938C44.5045 40.0014 44.3721 40.0612 44.237 40.0612H39.3619C39.0972 40.0612 38.8766 39.84 38.8546 39.556C38.0163 29.9756 36.2516 24.3887 35.0549 21.558C34.6578 20.6193 33.6707 20.153 32.7662 20.4729L32.0576 20.724C31.3572 20.9721 30.8829 21.6805 30.8829 22.4786V39.5082C30.8829 39.8131 30.6541 40.0612 30.3728 40.0612H24.8304C24.5492 40.0612 24.3203 39.8131 24.3203 39.5082V1.76638C24.3203 1.46148 24.5492 1.21338 24.8304 1.21338H34.8894C41.0026 1.21338 44.0716 4.01726 44.0716 9.71769C44.157 12.9161 42.6515 15.9203 40.1285 17.5823H40.1257ZM37.8371 9.84024C37.8371 7.98095 37.4152 5.05452 34.3572 5.05452H31.3903C31.109 5.05452 30.8802 5.30262 30.8802 5.60752V16.0518C30.8802 16.2252 30.9546 16.3866 31.0815 16.4912C31.2083 16.5959 31.371 16.6317 31.5254 16.5839C32.2864 16.3537 33.5493 15.9741 34.3572 15.723C36.8554 14.9518 37.8343 12.3273 37.8343 9.83725L37.8371 9.84024Z" fill="#F9F1DB"/>
<path d="M56.3759 35.6641C56.3759 35.969 56.6048 36.2171 56.886 36.2171H65.2796C65.5608 36.2171 65.7897 36.4652 65.7897 36.7701V39.5023C65.7897 39.8072 65.5608 40.0553 65.2796 40.0553H50.3207C50.0394 40.0553 49.8105 39.8072 49.8105 39.5023V1.76345C49.8105 1.45855 50.0394 1.21045 50.3207 1.21045H63.4349C63.7161 1.21045 63.945 1.45855 63.945 1.76345V4.49559C63.945 4.80049 63.7161 5.0486 63.4349 5.0486H56.8833C56.602 5.0486 56.3732 5.2967 56.3732 5.6016V14.366C56.3732 14.6709 56.602 14.919 56.8833 14.919H64.0773C64.3586 14.919 64.5874 15.1671 64.5874 15.472V18.2041C64.5874 18.509 64.3586 18.7571 64.0773 18.7571H56.8833C56.602 18.7571 56.3732 19.0052 56.3732 19.3101V35.6581L56.3759 35.6641Z" fill="#F9F1DB"/>
<path d="M87.6909 29.3659C87.6909 36.8031 84.382 40.5904 78.7321 40.5904C75.5032 40.6442 72.357 39.4635 69.8532 37.2515C69.6437 37.0602 69.6161 36.7224 69.7898 36.4892L71.549 34.1218C71.709 33.9066 71.9902 33.8527 72.2081 33.9992C73.198 34.6628 76.0078 36.3637 78.7348 36.3637C80.6319 36.3637 82.2864 35.1829 82.2864 32.0772C82.2864 25.3395 70.242 22.3652 70.242 10.4921C70.242 5.38947 73.3551 0.69043 78.7348 0.69043C81.688 0.711354 84.5502 1.8084 86.8554 3.80818C87.0704 3.99949 87.1035 4.34325 86.9298 4.57939C86.9298 4.57939 85.9178 6.03215 85.1678 7.00664C84.9914 7.23382 84.6825 7.26969 84.4675 7.08734C83.4141 6.20254 81.0152 4.70494 78.8562 4.70494C76.6971 4.70494 75.0758 6.06204 75.0758 8.90777C75.0758 15.1164 87.6909 18.8619 87.6936 29.363L87.6909 29.3659Z" fill="#F9F1DB"/>
<path d="M93.4805 40.0612V1.21338H100.043V40.0612H93.4805Z" fill="#F9F1DB"/>
<path d="M127.673 20.6343C127.673 33.7749 120.658 40.0582 114.685 40.0582H106.739C106.457 40.0582 106.229 39.8101 106.229 39.5052V1.76638C106.229 1.46148 106.457 1.21338 106.739 1.21338H114.685C120.658 1.21338 127.673 7.4967 127.673 20.6373V20.6343ZM121.375 20.6343C121.375 10.9821 118.347 5.07544 114.683 5.07544V5.05153H113.301C113.02 5.05153 112.791 5.29963 112.791 5.60453V35.664C112.791 35.9689 113.02 36.2171 113.301 36.2171H114.683V36.1931C118.347 36.1931 121.375 30.2865 121.375 20.6343Z" fill="#F9F1DB"/>
<path d="M132.543 40.0612V1.21338H139.106V40.0612H132.543Z" fill="#F9F1DB"/>
<path d="M167.999 20.6254C167.999 33.9064 162.027 40.3392 156.054 40.3392C150.082 40.3392 144.109 33.9064 144.109 20.6254C144.109 7.34431 150.082 0.965332 156.054 0.965332C162.027 0.965332 167.999 7.34431 167.999 20.6224V20.6254ZM161.448 20.6254C161.448 10.8716 159.716 4.76163 156.054 4.76163C152.393 4.76163 150.661 10.8686 150.661 20.6254C150.661 30.3822 152.39 36.516 156.054 36.516C159.719 36.516 161.448 30.3822 161.448 20.6254Z" fill="#F9F1DB"/>
</g>
<defs>
<clipPath id="clip0_1413_3408">
<rect width="168" height="39.9" fill="white" transform="translate(0 0.69043)"/>
</clipPath>
</defs>
</svg>
